<svg xmlns="http://www.w3.org/2000/svg" width="18" height="18" class="hidden-sm-down"><path fill-rule="evenodd" d="M15.364 11.636a8.962 8.962 0 0 0-3.42-2.145 5.203 5.203 0 0 0 2.259-4.288A5.209 5.209 0 0 0 9 0a5.209 5.209 0 0 0-5.203 5.203c0 1.777.896 3.349 2.259 4.288a8.962 8.962 0 0 0-3.42 2.145A8.94 8.94 0 0 0 0 18h1.406c0-4.187 3.407-7.594 7.594-7.594s7.594 3.407 7.594 7.594H18a8.94 8.94 0 0 0-2.636-6.364ZM9 9a3.8 3.8 0 0 1-3.797-3.797A3.802 3.802 0 0 1 9 1.406a3.802 3.802 0 0 1 3.797 3.797A3.8 3.8 0 0 1 9 9Z"/></svg>