<svg xmlns="http://www.w3.org/2000/svg" width="22" height="19" class="hidden-sm-down"><path fill-rule="evenodd" d="M.61 1.187h2.004l4.528 13.197c-.955.323-1.642 1.205-1.642 2.241C5.5 17.934 6.596 19 7.944 19c1.348 0 2.444-1.066 2.444-2.375 0-.433-.121-.838-.33-1.188h6.161c-.209.35-.33.755-.33 1.188 0 1.309 1.096 2.375 2.444 2.375 1.348 0 2.444-1.066 2.444-2.375 0-1.31-1.096-2.375-2.444-2.375H8.384l-.814-2.375h11.374a.61.61 0 0 0 .58-.406l2.444-7.125a.58.58 0 0 0-.083-.535.62.62 0 0 0-.496-.247H4.718L3.635.406A.61.61 0 0 0 3.055 0H.61a.603.603 0 0 0-.611.594c0 .328.274.593.611.593Zm17.723 14.25c.674 0 1.222.533 1.222 1.188 0 .654-.548 1.187-1.222 1.187-.674 0-1.222-.533-1.222-1.187 0-.655.548-1.188 1.222-1.188Zm-10.389 0c.674 0 1.222.533 1.222 1.188 0 .654-.548 1.187-1.222 1.187-.674 0-1.222-.533-1.222-1.187 0-.655.548-1.188 1.222-1.188ZM20.541 4.75l-2.037 5.937H7.162L5.125 4.75h15.416Z"/></svg>