<svg xmlns="http://www.w3.org/2000/svg" width="20" height="17" class="hidden-sm-down"><path fill-rule="evenodd" d="M14.357 0C12.655 0 11.061.686 10 1.837 8.939.686 7.345 0 5.643 0 2.531 0 0 2.254 0 5.025c0 2.169 1.453 4.679 4.318 7.458 2.205 2.139 4.603 3.796 5.286 4.252L10 17l.396-.265c.683-.456 3.081-2.113 5.286-4.252C18.547 9.704 20 7.194 20 5.025 20 2.254 17.469 0 14.357 0Zm.354 11.689c-1.814 1.76-3.765 3.182-4.711 3.837-.946-.655-2.897-2.077-4.711-3.837-2.597-2.52-3.97-4.825-3.97-6.664 0-2.123 1.939-3.851 4.324-3.851 1.569 0 3.017.762 3.78 1.988l.577.926.577-.926c.763-1.226 2.211-1.988 3.78-1.988 2.385 0 4.324 1.728 4.324 3.851 0 1.839-1.373 4.144-3.97 6.664Z"/></svg>